name Run_30002_IK.mot
datacolumns 164
datarows 4
range 1.23 1.26
endheader
time	         pelvis_tilt	         pelvis_list	     pelvis_rotation	           pelvis_tx	           pelvis_ty	           pelvis_tz	       hip_flexion_r	     hip_adduction_r	      hip_rotation_r	        knee_angle_r	       ankle_angle_r	       hip_flexion_l	     hip_adduction_l	      hip_rotation_l	        knee_angle_l	       ankle_angle_l	    lumbar_extension	      lumbar_bending	     lumbar_rotation	          arm_flex_r	           arm_add_r	           arm_rot_r	        elbow_flex_r	           pro_sup_r	          arm_flex_l	           arm_add_l	           arm_rot_l	        elbow_flex_l	           pro_sup_l	    subtalar_angle_r	         mtp_angle_r	    subtalar_angle_l	         mtp_angle_l	        wrist_flex_r	         wrist_dev_r	        wrist_flex_l	         wrist_dev_l	             LASI_tx	             LASI_ty	             LASI_tz	             RASI_tx	             RASI_ty	             RASI_tz	             LPSI_tx	             LPSI_ty	             LPSI_tz	             RPSI_tx	             RPSI_ty	             RPSI_tz	             RTH1_tx	             RTH1_ty	             RTH1_tz	             RTH2_tx	             RTH2_ty	             RTH2_tz	             RTH3_tx	             RTH3_ty	             RTH3_tz	             LTH1_tx	             LTH1_ty	             LTH1_tz	             LTH2_tx	             LTH2_ty	             LTH2_tz	             LTH3_tx	             LTH3_ty	             LTH3_tz	             RTB1_tx	             RTB1_ty	             RTB1_tz	             RTB2_tx	             RTB2_ty	             RTB2_tz	             RTB3_tx	             RTB3_ty	             RTB3_tz	             LTB1_tx	             LTB1_ty	             LTB1_tz	             LTB2_tx	             LTB2_ty	             LTB2_tz	             LTB3_tx	             LTB3_ty	             LTB3_tz	             RCAL_tx	             RCAL_ty	             RCAL_tz	             RTOE_tx	             RTOE_ty	             RTOE_tz	             RMT5_tx	             RMT5_ty	             RMT5_tz	             LCAL_tx	             LCAL_ty	             LCAL_tz	             LTOE_tx	             LTOE_ty	             LTOE_tz	             LMT5_tx	             LMT5_ty	             LMT5_tz	             LACR_tx	             LACR_ty	             LACR_tz	             RACR_tx	             RACR_ty	             RACR_tz	             CLAV_tx	             CLAV_ty	             CLAV_tz	               C7_tx	               C7_ty	               C7_tz	             RUA1_tx	             RUA1_ty	             RUA1_tz	             RUA2_tx	             RUA2_ty	             RUA2_tz	             RUA3_tx	             RUA3_ty	             RUA3_tz	             RLEL_tx	             RLEL_ty	             RLEL_tz	             RMEL_tx	             RMEL_ty	             RMEL_tz	             LUA1_tx	             LUA1_ty	             LUA1_tz	             LUA2_tx	             LUA2_ty	             LUA2_tz	             LUA3_tx	             LUA3_ty	             LUA3_tz	             LLEL_tx	             LLEL_ty	             LLEL_tz	             LMEL_tx	             LMEL_ty	             LMEL_tz	      RFAsuperior_tx	      RFAsuperior_ty	      RFAsuperior_tz	        RFAradius_tx	        RFAradius_ty	        RFAradius_tz	          RFAulna_tx	          RFAulna_ty	          RFAulna_tz	      LFAsuperior_tx	      LFAsuperior_ty	      LFAsuperior_tz	        LFAradius_tx	        LFAradius_ty	        LFAradius_tz	          LFAulna_tx	          LFAulna_ty	          LFAulna_tz	
1.23	        -11.83326454	         -0.56707350	         -7.67793738	          1.02441640	          1.04045076	         -0.33787710	         31.78620418	          6.44779462	          4.98390798	         -8.33333175	          4.38201530	         -1.74616575	          3.92334891	         -0.57852285	        -47.28723477	        -13.93831988	          4.00185635	          3.58932353	         -2.94874918	        -46.70564189	        -19.11199627	        -13.97670750	        109.55635644	        107.08278011	        -33.50879619	        -14.12635915	         -7.26370008	        131.47907139	        101.53074007	          0.00000000	          0.00000000	          0.00000000	          0.00000000	          0.00000000	          0.00000000	          0.00000000	          0.00000000	          1.05600440	          1.06834746	         -0.46226068	          1.02249727	          1.08803246	         -0.21990947	          0.89273212	          1.13570615	         -0.42088846	          0.87269717	          1.13423792	         -0.30831763	          0.95919841	          0.96794173	         -0.16733082	          0.95628729	          0.81095928	         -0.19310749	          1.04397267	          0.67902491	         -0.19730109	          0.99152540	          0.93472735	         -0.51600278	          0.86973912	          0.81173233	         -0.48321304	          0.88212232	          0.66695286	         -0.46823798	          1.17004490	          0.45139754	         -0.26420849	          1.09760687	          0.38800099	         -0.20262807	          1.18154876	          0.26377641	         -0.28422892	          0.78325584	          0.45653328	         -0.40849581	          0.65061609	          0.47014587	         -0.47201235	          0.58646839	          0.36227108	         -0.42328259	          1.09880510	          0.10006208	         -0.29236508	          1.32855225	          0.17099657	         -0.32131874	          1.30120160	          0.11298063	         -0.23245808	          0.42300446	          0.40976286	         -0.42306411	          0.47507479	          0.18265345	         -0.37881168	          0.42361219	          0.19943026	         -0.47704985	          1.01312117	          1.57761299	         -0.49427446	          0.98566484	          1.55193051	         -0.17873090	          1.05792920	          1.52372327	         -0.29823412	          0.94141193	          1.58569566	         -0.34666109	          0.84706814	          1.49615917	         -0.14689376	          0.86382324	          1.43182936	         -0.09999967	          0.76796269	          1.38816339	         -0.08028446	          0.71386385	          1.33988289	         -0.06479920	          0.72559047	          1.31101359	         -0.15071589	          0.92459604	          1.48601243	         -0.56549382	          0.95634623	          1.41448326	         -0.59439236	          0.88743459	          1.35348874	         -0.63412529	          0.87572072	          1.28559620	         -0.65758094	          0.84212681	          1.26167141	         -0.57394932	          0.78925917	          1.26200749	         -0.05064125	          0.94320279	          1.18803332	         -0.11344372	          0.90168160	          1.14621731	         -0.07753767	          0.94719630	          1.25090397	         -0.63169117	          1.08172065	          1.29420385	         -0.50756848	          1.09727700	          1.22737142	         -0.53285289	
1.24	        -11.76777868	         -0.90768660	         -7.57905273	          1.02352634	          1.03449952	         -0.33791931	         31.67956930	          6.90180018	          4.84634474	         -9.15061771	          4.45298092	          0.50967618	          3.21156188	         -0.99995457	        -53.41379489	        -12.94893087	          3.59510556	          4.14377472	         -2.61603148	        -45.66483909	        -19.39410750	        -13.73580423	        109.67723017	        107.03357061	        -33.52506991	        -13.99661151	         -6.81613243	        130.08363754	        102.36145659	          0.00000000	          0.00000000	          0.00000000	          0.00000000	          0.00000000	          0.00000000	          0.00000000	          0.00000000	          1.05506113	          1.06223952	         -0.46384994	          1.02168803	          1.08258344	         -0.22023711	          0.89199238	          1.12921123	         -0.42075301	          0.87177287	          1.12792651	         -0.30852139	          0.95739330	          0.96186285	         -0.16661175	          0.95559100	          0.80475519	         -0.19270584	          1.04485663	          0.67354026	         -0.19829178	          0.99302534	          0.92891981	         -0.51529377	          0.87547821	          0.80216432	         -0.48302231	          0.89201856	          0.65817407	         -0.46853460	          1.16754673	          0.44418543	         -0.26557459	          1.09434977	          0.38153767	         -0.20390262	          1.17652271	          0.25645365	         -0.28612032	          0.79382677	          0.45026645	         -0.40945440	          0.66202852	          0.47282655	         -0.47182118	          0.59166125	          0.36802517	         -0.42569476	          1.09145330	          0.09441446	         -0.29466095	          1.32165926	          0.16364913	         -0.32534711	          1.29431051	          0.10304845	         -0.23712880	          0.43079870	          0.42550176	         -0.42341416	          0.47136258	          0.19482683	         -0.38629038	          0.42075898	          0.21737480	         -0.48383879	          1.01298834	          1.57210131	         -0.49285917	          0.98750034	          1.54481222	         -0.17752279	          1.05859421	          1.51696145	         -0.29780952	          0.94212124	          1.58008591	         -0.34491126	          0.84960750	          1.48780433	         -0.14302891	          0.86751693	          1.42295504	         -0.09764573	          0.77253253	          1.37811167	         -0.07645898	          0.71921351	          1.32920249	         -0.06059439	          0.73010473	          1.30065235	         -0.14673780	          0.92360047	          1.48142759	         -0.56395010	          0.95471027	          1.40961450	         -0.59301341	          0.88544032	          1.34913101	         -0.63253277	          0.87298880	          1.28126330	         -0.65534945	          0.83964157	          1.25760261	         -0.57226125	          0.79590097	          1.25248500	         -0.04767598	          0.95000694	          1.18088774	         -0.11255336	          0.90963267	          1.13833301	         -0.07617633	          0.94374048	          1.24409960	         -0.63064616	          1.08015257	          1.28176594	         -0.50629105	          1.09366685	          1.21525977	         -0.53332472	
1.25	        -11.85007613	         -1.17132399	         -7.42408178	          1.02238639	          1.02729648	         -0.33797205	         31.84555547	          7.22862234	          4.34775156	        -10.73308342	          3.26328740	          3.08060651	          2.43926470	         -1.45788127	        -59.48107914	        -12.09226781	          3.38186285	          4.59536374	         -2.29468410	        -44.47636690	        -19.74871376	        -13.36979404	        109.64735997	        106.91481893	        -33.58024723	        -13.84270725	         -6.41157592	        128.52787921	        103.23858794	          0.00000000	          0.00000000	          0.00000000	          0.00000000	          0.00000000	          0.00000000	          0.00000000	          0.00000000	          1.05369965	          1.05501432	         -0.46497147	          1.02106326	          1.07554986	         -0.22028137	          0.89107856	          1.12194845	         -0.42042790	          0.87091113	          1.12037961	         -0.30838163	          0.95536310	          0.95475602	         -0.16580564	          0.95476346	          0.79750191	         -0.19393944	          1.04516887	          0.66730093	         -0.19949934	          0.99405454	          0.92266130	         -0.51500341	          0.88127751	          0.79184951	         -0.48296045	          0.90263299	          0.64881166	         -0.47017585	          1.16374628	          0.43498849	         -0.26605352	          1.08890673	          0.37391322	         -0.20456531	          1.16892844	          0.24731473	         -0.28738013	          0.80586734	          0.44369308	         -0.41099248	          0.67552751	          0.47420333	         -0.47220826	          0.59938662	          0.37295249	         -0.42755616	          1.07927842	          0.09088093	         -0.29623548	          1.31095910	          0.14936427	         -0.32913200	          1.28183212	          0.08830874	         -0.24148131	          0.44172997	          0.43964435	         -0.42257823	          0.47078428	          0.20605554	         -0.39349235	          0.42185016	          0.23468469	         -0.49039911	          1.01257914	          1.56526634	         -0.49167920	          0.98927603	          1.53674493	         -0.17639656	          1.05915041	          1.50922165	         -0.29745845	          0.94263431	          1.57345413	         -0.34339472	          0.85233926	          1.47818304	         -0.13890259	          0.87167644	          1.41288536	         -0.09506710	          0.77773725	          1.36656997	         -0.07222363	          0.72530594	          1.31704831	         -0.05582198	          0.73520943	          1.28875617	         -0.14215924	          0.92221646	          1.47555708	         -0.56239511	          0.95281730	          1.40329940	         -0.59151665	          0.88302092	          1.34344123	         -0.63062564	          0.86970271	          1.27569155	         -0.65296205	          0.83672196	          1.25231475	         -0.57037343	          0.80324040	          1.24143010	         -0.04425822	          0.95742473	          1.17235949	         -0.11155482	          0.91825434	          1.12909435	         -0.07467104	          0.93953113	          1.23599511	         -0.62953446	          1.07802804	          1.26751154	         -0.50528062	          1.08930164	          1.20144334	         -0.53419115	
1.26	        -11.93780918	         -1.38033182	         -7.26117127	          1.02114366	          1.01919556	         -0.33788314	         32.21160767	          7.45179770	          3.19619576	        -13.24622899	          1.09285016	          5.72535417	          1.58244079	         -1.99060687	        -65.30861010	        -11.05562987	          3.21342640	          4.94864976	         -1.91387202	        -43.14114530	        -20.13558542	        -12.90444027	        109.43996410	        106.71340704	        -33.63056774	        -13.71456662	         -5.99393979	        126.78065307	        104.10630690	          0.00000000	          0.00000000	          0.00000000	          0.00000000	          0.00000000	          0.00000000	          0.00000000	          0.00000000	          1.05207179	          1.04704150	         -0.46565860	          1.02046531	          1.06719967	         -0.21958194	          0.88985555	          1.11391581	         -0.41991584	          0.87004771	          1.11183371	         -0.30782005	          0.95382808	          0.94657818	         -0.16559194	          0.95343038	          0.78946079	         -0.19621103	          1.04450902	          0.66000766	         -0.20041684	          0.99486261	          0.91591506	         -0.51497825	          0.88713563	          0.78096215	         -0.48276009	          0.91394095	          0.63902246	         -0.47250082	          1.15913805	          0.42440231	         -0.26608377	          1.08177934	          0.36543732	         -0.20542083	          1.15874611	          0.23688494	         -0.28917855	          0.81925798	          0.43681527	         -0.41373075	          0.69041947	          0.47478381	         -0.47316305	          0.60929169	          0.37705408	         -0.42935171	          1.06204728	          0.09016377	         -0.29855994	          1.29632752	          0.12799446	         -0.33194332	          1.26320859	          0.07138555	         -0.24436439	          0.45473037	          0.45169642	         -0.42069544	          0.47413071	          0.21607996	         -0.40041580	          0.42693433	          0.25054851	         -0.49638919	          1.01177954	          1.55717361	         -0.49072234	          0.99103457	          1.52773801	         -0.17523591	          1.05964323	          1.50066995	         -0.29700645	          0.94285385	          1.56569941	         -0.34214377	          0.85526062	          1.46737621	         -0.13462720	          0.87626456	          1.40169499	         -0.09225732	          0.78355181	          1.35367692	         -0.06766970	          0.73211179	          1.30347297	         -0.05064143	          0.74081660	          1.27555187	         -0.13695115	          0.92031439	          1.46833217	         -0.56075849	          0.95057556	          1.39554106	         -0.58991601	          0.88019626	          1.33635733	         -0.62848788	          0.86595163	          1.26890038	         -0.65064267	          0.83332472	          1.24586686	         -0.56844694	          0.81129492	          1.22894776	         -0.04045316	          0.96544074	          1.16252034	         -0.11043048	          0.92751163	          1.11854393	         -0.07303034	          0.93460698	          1.22661251	         -0.62843533	          1.07522443	          1.25154084	         -0.50455760	          1.08410294	          1.18600534	         -0.53538526	
